<svg fill="none" height="24" viewBox="0 0 24 24" width="24" xmlns="http://www.w3.org/2000/svg"><path d="m2 2 20 20" stroke="#141b34" stroke-linecap="round" stroke-width="1.5"/><path d="m6.26478 21.7478-.24842.7077zm-2.49682-2.3499-.69724.2763zm11.89364 2.1607-.2484-.7076zm3.1353-18.76076-.4319.6131zm.8554.80505-.587.46686zm1.5977 8.39711c0-.4142-.3358-.75-.75-.75s-.75.3358-.75.75zm-7.3599 4.5686-.7244-.1941zm1.1785-1.1785-.1941-.7244zm-4.5686 5.8599c-.4142 0-.75.3358-.75.75s.3358.75.75.75zm-5.74366-16.84286c.18014-.37299.02379-.82139-.3492-1.00153-.37299-.18013-.82139-.02379-1.00153.3492zm14.93376 15.14386c.2519-.3288.1897-.7995-.1391-1.0515s-.7995-.1897-1.0515.1391zm-4.2424-3.4744c.4095-.0621.6911-.4445.6289-.854-.0621-.4095-.4445-.6911-.854-.629zm4.1705-.0602c-.0564.4103.2305.7887.6408.8452.4104.0564.7888-.2305.8452-.6408zm-1.0187-1.8664c-.3444.2301-.437.6958-.2069 1.0402s.6959.4371 1.0403.207zm-12.23881-12.5944c-.40364.093-.65546.49561-.56245.89925.093.40363.49561.65545.89925.56245zm5.63931 1.1944h.7727v-1.5h-.7727zm7.75 6.52273v2.54547h1.5v-2.54547zm-15.5 6.90907v-6.1818h-1.5v6.1818zm5.43182 5.0682c-1.86254 0-2.60129-.0107-3.16862-.2099l-.49684 1.4154c.86954.3052 1.92986.2945 3.66546.2945zm-6.93182-5.0682c0 .8367-.00038 1.5006.03512 2.0388.03594.5449.11094 1.0128.2856 1.4536l1.39449-.5527c-.0933-.2354-.15229-.5289-.18334-.9996-.03149-.4775-.03187-1.0836-.03187-1.9401zm3.7632 4.8583c-.96091-.3373-1.70144-1.0441-2.04799-1.9186l-1.39449.5527c.51502 1.2996 1.59657 2.3077 2.94564 2.7813zm3.16862 1.7099c3.08488 0 4.81988.0107 6.22828-.4837l-.4969-1.4153c-1.1061.3883-2.5195.399-5.73138.399zm3.09088-20c1.6467 0 2.8238.00095 3.7327.09569.8969.09349 1.4424.27133 1.8596.56525l.8639-1.22621c-.7152-.50392-1.5513-.72499-2.568-.83096-1.0048-.10472-2.2737-.10377-3.8882-.10377zm8.4773 6.52273c0-1.51653.0012-2.71937-.1111-3.67391-.1144-.97217-.3547-1.77773-.8996-2.4628l-1.174.93373c.3028.38072.4863.8754.5839 1.70436.0996.84658.1008 1.94578.1008 3.49862zm-2.885-5.86179c.2671.18819.5027.41029.7003.65881l1.174-.93373c-.2881-.3622-.6286-.68229-1.0104-.95129zm-3.7504 13.35186c.0847-.3164.3318-.5635.6481-.6482l-.3882-1.4489c-.834.2234-1.4854.8749-1.7088 1.7088zm-4.1146 5.9872c2.2552 0 4.0833-1.8282 4.0833-4.0833h-1.5c0 1.4267-1.1566 2.5833-2.5833 2.5833zm4.0833-4.0833c0-.1858-.0081-.3754-.0163-.5525-.0084-.1823-.017-.3509-.0205-.519-.0071-.3407.0093-.6133.0681-.8324l-1.4489-.3883c-.1147.4282-.1267.8717-.1189 1.2518.004.1923.0138.3851.0218.5575.0083.1776.0147.3357.0147.4829zm-10.3333-8.6667c0-1.47298.00048-2.61976.0705-3.54902.07011-.93038.20615-1.56823.43584-2.04384l-1.35073-.65233c-.35128.72737-.50573 1.58638-.58087 2.58345-.07522.99818-.07474 2.20942-.07474 3.66174zm14.2495 8.6386c-.7611.9931-1.8288 1.771-3.0863 2.2124l.4969 1.4153c1.5261-.5357 2.8372-1.4852 3.78-2.7153zm-3.2769-4.045c-.1146.0174-.2312.0408-.3481.0721l.3882 1.4489c.0563-.0151.1178-.0278.185-.038zm4.5274-2.7754c0 1.9982-.0017 3.2526-.1318 4.1982l1.486.2044c.1475-1.0724.1458-2.4514.1458-4.4026zm0 .1818c0 .8957-.4552 1.6854-1.1505 2.15l.8334 1.2472c1.094-.731 1.8171-1.9795 1.8171-3.3972zm-7.75-10.75c-2.46454 0-4.2922-.0048-5.63931.3056l.3368 1.4617c1.13923-.2625 2.75594-.2673 5.30251-.2673z" fill="#141b34"/></svg>